<?xml version="1.0" standalone="no"?>
<!DOCTYPE svg PUBLIC "-//W3C//DTD SVG 20010904//EN"
 "http://www.w3.org/TR/2001/REC-SVG-20010904/DTD/svg10.dtd">
<svg version="1.0" xmlns="http://www.w3.org/2000/svg"
 width="550.000000pt" height="550.000000pt" viewBox="0 0 550.000000 550.000000"
 preserveAspectRatio="xMidYMid meet">
<metadata>
Created by potrace 1.14, written by Peter Selinger 2001-2017
</metadata>
<g transform="translate(0.000000,550.000000) scale(0.100000,-0.100000)"
fill="#000000" stroke="none">
<path d="M2569 5246 c-2 -2 -33 -6 -69 -10 -36 -3 -76 -8 -90 -11 -14 -2 -46
-7 -72 -10 -231 -26 -628 -171 -861 -314 -37 -22 -69 -41 -72 -41 -3 0 -13 -7
-22 -15 -10 -8 -55 -40 -99 -72 -45 -32 -106 -78 -135 -103 -78 -64 -276 -265
-332 -335 -27 -33 -53 -67 -60 -75 -22 -27 -103 -145 -110 -160 -4 -8 -20 -35
-37 -60 -103 -159 -256 -524 -284 -680 -2 -14 -7 -32 -10 -40 -3 -8 -8 -26
-10 -40 -3 -14 -7 -34 -9 -45 -6 -27 -27 -157 -30 -189 -1 -11 -37 -81 -79
-155 l-77 -136 70 -3 69 -3 1 -57 c2 -91 13 -231 24 -292 2 -14 6 -41 9 -60
46 -289 172 -630 328 -884 55 -90 135 -207 178 -260 78 -96 272 -295 350 -360
208 -171 426 -302 665 -399 96 -40 274 -99 331 -112 163 -35 218 -46 255 -50
24 -2 73 -8 109 -12 131 -16 503 -8 605 12 11 3 37 7 57 10 21 2 59 10 85 16
27 6 59 13 73 15 14 3 50 12 80 20 30 9 60 17 65 19 6 1 17 4 25 7 8 3 49 17
90 31 41 14 92 33 112 42 21 8 40 15 43 15 8 1 237 118 277 143 134 81 194
122 293 199 108 85 238 210 326 313 19 21 41 47 49 57 8 9 24 28 36 40 11 13
23 31 27 41 3 9 11 17 17 17 5 0 10 6 10 13 0 8 9 22 20 32 11 10 20 24 20 31
0 7 6 17 13 21 31 20 245 421 252 473 0 3 11 32 24 65 12 33 24 67 26 75 2 8
8 28 15 45 10 28 48 175 56 220 6 38 15 80 19 95 3 8 7 42 10 74 6 61 27 106
123 271 l41 70 -69 3 -70 3 -1 57 c-1 99 -14 244 -29 332 -6 30 -13 69 -15 85
-3 17 -8 36 -11 44 -2 8 -7 30 -10 50 -5 35 -67 246 -84 286 -4 11 -25 61 -45
110 -50 119 -163 341 -182 354 -5 3 -14 17 -21 31 -13 27 -31 57 -47 77 -21
26 -31 40 -74 98 -126 170 -387 418 -561 533 -30 20 -56 39 -58 44 -2 4 -10 8
-17 8 -8 0 -20 6 -27 13 -32 28 -226 129 -354 183 -213 89 -376 132 -679 179
-44 7 -460 17 -466 11z m440 -60 c14 -3 47 -8 75 -11 28 -3 60 -8 71 -10 11
-3 31 -7 45 -9 103 -17 348 -89 455 -133 98 -40 305 -143 362 -179 28 -19 56
-34 62 -34 5 0 11 -4 13 -8 2 -4 32 -28 68 -52 109 -75 210 -160 315 -265 107
-106 215 -227 215 -240 0 -3 19 -31 43 -62 154 -205 328 -574 382 -808 1 -5 4
-17 7 -25 6 -15 30 -123 33 -150 2 -8 5 -28 8 -45 3 -16 9 -50 12 -75 3 -25 8
-61 10 -80 3 -19 7 -83 11 -142 l6 -108 -106 0 -106 0 -1 53 c0 28 -2 68 -4
87 -10 114 -16 169 -20 191 -5 23 -10 51 -20 107 -4 25 -18 79 -47 187 -5 22
-14 49 -18 60 -5 11 -14 38 -21 60 -10 34 -27 76 -92 225 -6 14 -18 33 -26 43
-8 9 -10 17 -5 17 5 0 5 4 -1 8 -5 4 -21 27 -34 52 -24 46 -143 229 -171 264
-152 188 -307 338 -461 448 -81 58 -109 77 -149 99 -25 13 -47 27 -50 30 -3 4
-63 36 -135 71 -129 63 -214 97 -310 125 -82 24 -199 55 -220 58 -11 2 -47 8
-80 15 -172 31 -554 35 -701 6 -12 -2 -37 -7 -55 -10 -66 -11 -107 -20 -221
-51 -10 -3 -27 -7 -37 -9 -11 -3 -29 -10 -40 -16 -12 -6 -21 -9 -21 -6 0 4
-115 -39 -185 -70 -22 -10 -42 -18 -45 -19 -15 -5 -46 -19 -50 -24 -3 -3 -32
-19 -65 -36 -80 -40 -197 -112 -207 -127 -4 -7 -8 -9 -8 -5 0 5 -13 -2 -29
-15 -16 -12 -41 -32 -56 -43 -16 -11 -34 -26 -41 -32 -7 -7 -15 -13 -17 -13
-15 0 -206 -186 -282 -275 -104 -120 -255 -340 -255 -372 0 -22 134 -262 150
-268 8 -3 11 -3 7 1 -4 4 0 16 10 26 9 10 12 18 7 18 -5 0 -4 4 1 8 6 4 25 36
44 72 49 96 101 173 211 315 30 39 226 232 275 270 28 22 52 42 55 45 3 3 32
23 65 45 33 22 66 46 73 53 7 6 19 12 26 12 8 0 19 7 26 15 7 8 16 12 21 9 5
-3 9 0 9 7 0 7 3 10 6 6 3 -3 15 3 27 14 11 10 29 19 39 19 10 0 18 5 18 10 0
6 5 10 10 10 6 0 33 11 62 25 28 14 57 25 62 25 6 0 23 6 37 14 25 13 159 57
176 58 5 0 18 4 31 9 13 5 35 11 50 14 15 3 38 7 52 10 92 18 133 24 141 19 5
-3 9 -2 9 3 0 15 277 22 420 10 79 -7 113 -11 170 -23 19 -3 45 -7 58 -7 12
-1 22 -4 22 -7 0 -3 8 -6 18 -7 53 -4 233 -63 347 -114 28 -12 52 -23 55 -23
19 -4 199 -108 265 -154 115 -79 177 -132 290 -247 124 -127 145 -150 145
-164 0 -6 4 -11 9 -11 14 0 134 -185 189 -290 75 -143 156 -361 176 -467 3
-15 7 -38 10 -49 2 -12 7 -39 11 -60 3 -22 8 -55 12 -74 3 -19 6 -54 6 -77 1
-24 4 -43 7 -43 3 0 5 -30 5 -68 l0 -67 -203 -3 -202 -2 25 -40 c14 -22 25
-44 25 -50 0 -5 4 -10 8 -10 4 0 13 -12 19 -27 7 -16 27 -55 46 -88 19 -33 42
-76 53 -95 10 -19 21 -37 24 -40 3 -3 11 -16 17 -30 7 -14 26 -50 44 -80 17
-30 47 -84 67 -119 118 -215 199 -355 208 -358 5 -1 14 7 20 20 6 12 33 60 60
107 50 88 55 96 116 208 60 111 108 188 108 172 -1 -12 -12 -61 -44 -190 -2
-8 -10 -35 -17 -60 -7 -25 -13 -49 -15 -55 -19 -93 -227 -540 -256 -553 -5 -2
-8 -8 -8 -12 0 -13 -110 -170 -178 -255 -61 -76 -257 -275 -310 -315 -19 -14
-39 -30 -45 -36 -79 -72 -303 -213 -458 -287 -149 -72 -306 -136 -317 -128 -1
1 -16 -6 -32 -14 -17 -9 -30 -13 -30 -11 0 3 -18 -1 -40 -9 -22 -8 -40 -12
-40 -9 0 2 -8 0 -17 -5 -10 -5 -31 -11 -48 -14 -53 -10 -90 -18 -105 -22 -22
-7 -146 -25 -225 -33 -87 -9 -401 -8 -475 2 -164 21 -201 28 -350 66 -355 90
-688 259 -976 495 -59 48 -267 257 -309 310 -55 69 -161 219 -197 280 -52 87
-129 228 -133 245 -1 3 -11 27 -23 53 -12 27 -22 51 -22 53 0 2 -8 23 -18 47
-19 43 -50 130 -57 157 -2 8 -15 57 -29 108 -14 51 -28 105 -31 120 -3 15 -7
38 -10 52 -15 77 -16 86 -30 195 -2 22 -7 88 -10 147 l-6 108 110 0 111 0 1
-57 c1 -67 6 -115 24 -268 8 -71 45 -245 59 -277 4 -9 9 -22 10 -30 27 -138
161 -430 281 -608 43 -63 80 -117 84 -120 3 -3 22 -25 41 -50 54 -69 240 -266
240 -253 0 3 10 -5 22 -19 19 -20 60 -54 136 -113 7 -5 18 -14 25 -20 7 -5 20
-14 29 -20 8 -5 28 -19 44 -29 64 -42 101 -65 149 -91 28 -15 56 -32 63 -37 6
-6 12 -7 12 -2 0 5 4 4 8 -2 7 -10 213 -103 242 -109 8 -2 16 -4 18 -5 1 -2 7
-4 12 -5 6 -1 12 -4 15 -5 3 -1 8 -3 13 -5 4 -1 14 -5 22 -8 8 -4 24 -8 35
-10 11 -2 27 -7 35 -10 18 -7 99 -29 120 -32 58 -10 97 -17 108 -20 7 -3 34
-7 60 -10 26 -4 58 -9 72 -12 58 -12 428 -11 520 2 150 22 173 26 215 37 22 5
47 11 55 13 49 10 116 29 125 35 6 4 24 10 40 14 47 11 260 98 263 107 2 5 9
9 17 9 23 0 250 131 267 155 4 5 8 6 8 2 0 -5 7 -1 16 8 9 9 29 24 43 33 60
39 193 154 280 242 121 124 331 401 331 438 0 6 5 12 10 12 15 0 12 42 -4 65
-12 18 -77 137 -113 208 -8 15 -19 27 -24 27 -6 0 -8 -4 -5 -9 3 -5 -1 -14 -9
-21 -8 -7 -13 -16 -10 -20 3 -5 -1 -14 -7 -22 -7 -7 -24 -35 -38 -63 -92 -182
-301 -433 -485 -580 -28 -22 -52 -43 -55 -46 -10 -12 -207 -137 -245 -156 -22
-11 -69 -35 -105 -53 -36 -18 -71 -33 -77 -33 -7 0 -13 -5 -13 -10 0 -6 -3 -8
-6 -4 -3 3 -26 -3 -51 -14 -45 -19 -195 -64 -243 -73 -14 -2 -32 -7 -40 -10
-111 -40 -495 -51 -690 -20 -25 4 -52 8 -60 9 -290 44 -652 209 -894 408 -112
93 -257 245 -354 372 -70 92 -237 399 -226 416 2 4 -1 13 -8 21 -23 23 -95
270 -113 388 -16 98 -24 173 -27 260 l-2 75 197 3 196 2 -28 48 c-29 49 -60
104 -107 190 -15 26 -41 72 -58 102 -18 30 -39 70 -47 88 -7 17 -17 32 -21 32
-5 0 -8 4 -8 9 0 10 -168 316 -229 418 l-39 63 -43 -77 c-24 -43 -52 -91 -61
-108 -9 -16 -20 -37 -24 -45 -4 -8 -20 -36 -35 -61 -15 -25 -48 -86 -74 -135
-26 -49 -51 -93 -56 -98 -10 -11 -1 48 20 134 7 25 14 54 16 65 13 56 66 218
85 260 5 11 23 54 41 95 47 111 95 203 168 320 35 58 67 107 70 110 4 3 17 22
31 42 14 21 29 38 33 38 5 0 5 5 2 10 -3 6 -2 10 3 10 5 0 24 21 42 47 43 60
272 293 288 293 7 0 12 4 12 8 0 14 240 192 260 192 5 0 10 3 10 8 0 4 21 18
48 32 26 13 49 27 52 31 5 6 51 33 60 34 3 1 33 15 67 33 35 18 64 32 65 31 2
-1 21 7 43 18 37 19 221 90 255 99 8 2 65 17 125 33 61 16 124 31 140 34 17 3
46 8 65 11 72 12 97 16 165 22 38 4 72 8 74 10 6 6 393 -4 420 -10z"/>
<path d="M3578 4206 l-66 -83 -66 1 -65 1 -74 79 -74 80 -69 -29 c-65 -27 -98
-50 -90 -64 2 -3 7 -42 11 -86 4 -44 9 -83 11 -87 5 -7 -57 -82 -85 -104 -9
-7 -53 -9 -121 -7 l-107 5 -31 -78 c-37 -89 -41 -79 65 -166 l73 -59 0 -63 0
-64 -81 -76 -81 -76 33 -80 33 -81 41 5 c22 3 72 8 110 12 l71 6 46 -50 c35
-37 46 -56 43 -74 -2 -12 -5 -63 -7 -112 l-3 -89 69 -29 c38 -15 74 -28 80
-28 6 1 24 17 39 38 16 20 48 60 72 88 l44 51 63 0 63 0 76 -81 76 -80 67 28
c91 39 95 43 86 108 -21 144 -21 142 26 195 l43 48 113 0 c127 0 113 -9 157
102 l20 52 -84 71 -85 72 0 68 c0 38 4 70 9 72 5 2 41 34 81 71 l72 68 -34 79
-33 79 -55 -4 c-30 -3 -80 -8 -110 -11 -55 -5 -55 -5 -100 41 l-45 46 0 110 0
110 -68 30 c-38 16 -74 29 -80 29 -7 -1 -42 -38 -79 -84z m-6 -442 c79 -48
118 -115 119 -203 3 -187 -182 -301 -350 -217 -117 60 -161 201 -99 321 32 63
88 109 146 121 8 1 16 5 19 8 3 2 31 3 64 1 41 -3 71 -12 101 -31z"/>
<path d="M2080 3356 c-1 -1 -23 -68 -49 -151 l-49 -150 -83 -37 -82 -36 -51
23 c-28 12 -90 41 -138 64 -48 22 -91 41 -95 41 -5 0 -46 -38 -92 -84 l-83
-83 70 -139 70 -139 -33 -80 c-22 -53 -41 -84 -57 -92 -12 -7 -77 -32 -143
-55 -66 -23 -123 -46 -126 -51 -3 -5 -6 -61 -5 -125 l1 -116 145 -47 c80 -27
146 -48 146 -49 1 0 18 -38 37 -85 l36 -84 -31 -63 c-54 -112 -98 -209 -98
-218 0 -4 37 -45 83 -91 l83 -84 50 25 c27 14 88 46 137 72 l87 45 82 -33 c45
-19 85 -37 89 -41 3 -5 21 -51 38 -103 18 -52 36 -104 40 -115 5 -11 13 -32
20 -47 l11 -28 120 3 121 2 46 140 c25 77 49 144 53 149 14 14 143 66 165 66
11 0 79 -29 150 -64 l130 -64 87 87 87 87 -70 137 -70 137 31 78 c17 42 37 82
43 88 7 6 73 33 147 59 74 26 137 50 139 52 6 4 5 243 0 246 -2 2 -65 23 -139
46 -74 24 -140 48 -147 53 -6 5 -25 44 -43 87 l-31 79 67 141 67 142 -86 86
-86 87 -139 -71 -139 -70 -84 34 -84 35 -50 144 c-27 80 -54 148 -59 152 -8 5
-234 13 -236 8z m266 -775 c216 -100 264 -375 96 -548 -93 -96 -254 -127 -373
-71 -78 36 -133 89 -170 164 -75 152 -29 330 112 426 102 71 222 81 335 29z"/>
</g>
</svg>
